<svg version="1.2" xmlns="http://www.w3.org/2000/svg" viewBox="0 0 20 16" width="20" height="16"><defs><clipPath clipPathUnits="userSpaceOnUse" id="cp1"><path d="m-1585-2408h1920v2520h-1920z"/></clipPath></defs><style></style><g clip-path="url(#cp1)"><path fill-rule="evenodd" d="m5.3 0.9q4.7-0.4 9.4 0l1.5 0.1c1 0.1 1.9 0.7 2.3 1.6-0.1 0.3-6.3 4.2-6.3 4.2q-0.8 0.5-1.7 0.6-1.8-0.5-2.8-0.6l-6.2-3.7c0.3-1.3 1.2-2 2.3-2.1zm2.5 5.9h-0.1c-4.2-0.7-0.7 1.3-0.7 1.3l-5.6-3.3c-0.2-0.1-0.4 0-0.4 0.2 0.7 4.8 0.8 7 0.7 7.9 3.2 2.1 2.2 2.1 2.1 2.1q1.3 0.1 2.2 0.1c7.5-0.1 8.7 0 8.8 0q1-0.3 1.5-0.5c1.5-3.5 2.2-4.7 2.5-4.7 0-3.7 0.1-4.8 0.1-5.1-5.9 3.3-0.3-0.2-0.3-0.2-3.4 1.6-5.3 2.6-6.3 3.3q-1-0.3-1.8-0.5c-1 0.1-1.9-0.1-2.7-0.6zm-6.1 6.1q-0.2-0.2-0.5-0.4c0.1 0.7 0.4 1.3 0.5 0.4zm2.1 2.1q0 0 0 0 0 0 0 0zm2.2 0.1q-0.3 0-0.7 0c2.8 0.3 5.5 0.3 0.7 0zm8.8 0q-0.1 0-0.1 0c0 0 0.1 0 0.1 0zm1.5-0.5q0 0.2-0.1 0.4c1.1-0.1 2-0.8 0.1-0.4zm2.5-4.7q0 1.2 0 2.6c0.2-1.2 0.3-2.5 0-2.6zm0.1-5.1q0.1 0 0.1 0c0-0.1 0-0.1-0.1 0zm-6.6 3.1q0.3 0.1 0.7 0.2c-1.2 0.7-2.6 1-0.7-0.2z"/></g></svg>